<svg width="200" height="32" viewBox="0 0 200 32" fill="none" xmlns="http://www.w3.org/2000/svg">
<path d="M61.799 6.08621H52.9359L48.6507 30.8568H41.4808L45.7869 6.08621H37.0702L38.0736 0.421376H62.7814L61.799 6.08621Z" fill="white" fill-opacity="0.6"/>
<path d="M73.076 31.2749C69.9126 31.2052 67.3763 30.16 65.4671 28.1393C63.5579 26.1187 62.4779 23.4152 62.2271 20.0288C62.0877 18.3565 62.2201 16.3916 62.6242 14.134C63.0284 11.8625 63.7461 9.77219 64.7773 7.863C65.8085 5.95382 67.0976 4.36516 68.6444 3.09702C71.2365 0.964866 74.2187 -0.0663707 77.5911 0.00330751C79.6675 0.0451144 81.4791 0.525894 83.026 1.44565C84.5868 2.35146 85.834 3.66141 86.7677 5.37549C87.7014 7.08958 88.2449 9.04056 88.3982 11.2285C88.5097 12.7753 88.4121 14.5382 88.1055 16.517C87.8129 18.482 87.2624 20.3633 86.4542 22.161C85.6598 23.9447 84.6286 25.5194 83.3605 26.8851C82.0923 28.2508 80.5942 29.3378 78.8662 30.1461C77.1521 30.9404 75.222 31.3167 73.076 31.2749ZM81.2283 11.1657C81.0889 7.68184 79.7372 5.87021 77.173 5.73085C75.1942 5.6333 73.5567 6.42067 72.2607 8.09294C70.9647 9.75128 70.1077 12.204 69.6896 15.451C69.4248 17.4577 69.3273 19.0115 69.397 20.1124C69.5363 23.6521 70.902 25.4707 73.494 25.5682C75.1942 25.6518 76.6574 25.0456 77.8838 23.7496C79.1101 22.4397 79.995 20.5444 80.5385 18.0639C81.082 15.5694 81.3119 13.27 81.2283 11.1657Z" fill="white" fill-opacity="0.6"/>
<path d="M89.8297 30.8568L95.0973 0.421376L104.044 0.44228C106.678 0.44228 108.977 1.13906 110.942 2.53262C112.907 3.91225 114.301 5.80053 115.123 8.19746C115.834 10.3017 116.05 12.5732 115.771 15.012L115.625 16.2871C115.248 19.0185 114.342 21.4921 112.907 23.7078C111.472 25.9236 109.625 27.6655 107.368 28.9337C105.11 30.1879 102.671 30.8289 100.051 30.8568H89.8297ZM101.285 6.08621L97.9611 25.2129L100.051 25.2338C102.504 25.2338 104.469 24.2861 105.946 22.3909C107.437 20.4957 108.322 17.597 108.601 13.6951L108.643 13.0053C108.74 10.7756 108.392 9.08237 107.598 7.92571C106.803 6.76906 105.612 6.16286 104.023 6.10711L101.285 6.08621Z" fill="white" fill-opacity="0.6"/>
<path d="M129.87 31.2749C126.706 31.2052 124.17 30.16 122.261 28.1393C120.352 26.1187 119.272 23.4152 119.021 20.0288C118.882 18.3565 119.014 16.3916 119.418 14.134C119.822 11.8625 120.54 9.77219 121.571 7.863C122.602 5.95382 123.891 4.36516 125.438 3.09702C128.03 0.964866 131.013 -0.0663707 134.385 0.00330751C136.461 0.0451144 138.273 0.525894 139.82 1.44565C141.381 2.35146 142.628 3.66141 143.562 5.37549C144.495 7.08958 145.039 9.04056 145.192 11.2285C145.303 12.7753 145.206 14.5382 144.899 16.517C144.607 18.482 144.056 20.3633 143.248 22.161C142.454 23.9447 141.422 25.5194 140.154 26.8851C138.886 28.2508 137.388 29.3378 135.66 30.1461C133.946 30.9404 132.016 31.3167 129.87 31.2749ZM138.022 11.1657C137.883 7.68184 136.531 5.87021 133.967 5.73085C131.988 5.6333 130.351 6.42067 129.055 8.09294C127.759 9.75128 126.901 12.204 126.483 15.451C126.219 17.4577 126.121 19.0115 126.191 20.1124C126.33 23.6521 127.696 25.4707 130.288 25.5682C131.988 25.6518 133.451 25.0456 134.678 23.7496C135.904 22.4397 136.789 20.5444 137.332 18.0639C137.876 15.5694 138.106 13.27 138.022 11.1657Z" fill="white" fill-opacity="0.6"/>
<path d="M155.57 20.5305L153.772 30.8568H146.623L151.891 0.421376L162.824 0.44228C166.21 0.44228 168.872 1.38294 170.809 3.26425C172.76 5.14556 173.617 7.58429 173.38 10.5805C173.213 12.629 172.558 14.4058 171.415 15.9108C170.272 17.4159 168.76 18.5656 166.879 19.3599C165.012 20.1542 162.914 20.5514 160.587 20.5514L155.57 20.5305ZM156.553 14.8657L160.859 14.9075C162.67 14.8657 164.057 14.2804 165.019 13.1516C165.98 12.0089 166.363 10.6083 166.168 8.94998C166.057 8.09991 165.729 7.431 165.186 6.94325C164.656 6.44157 163.952 6.16286 163.074 6.10711L158.079 6.08621L156.553 14.8657Z" fill="white" fill-opacity="0.6"/>
<path d="M194.9 17.9594H183.716L182.441 25.2129H195.673L194.691 30.8568H174.31L179.577 0.421376H200L199.018 6.08621H185.765L184.636 12.5036H195.84L194.9 17.9594Z" fill="white" fill-opacity="0.6"/>
<path d="M9.20422 29.1443L9.20422 3.45813L16.2679 3.45813L16.2679 29.1443L9.20422 29.1443Z" fill="white" fill-opacity="0.6"/>
<path d="M0 12.6624L25.6862 12.6624V19.726L0 19.726L0 12.6624Z" fill="white" fill-opacity="0.6"/>
</svg>
